<svg width="175" height="80" viewBox="0 0 175 80" fill="none" xmlns="http://www.w3.org/2000/svg">
<ellipse cx="87.5" cy="65.5" rx="87.5" ry="14.5" fill="#151515"/>
<rect y="14" width="175" height="51" fill="#151515"/>
<ellipse cx="87.5" cy="14.5" rx="87.5" ry="14.5" fill="#534B4B"/>
<ellipse cx="87.5" cy="14.5" rx="27.5" ry="9.5" fill="#151515"/>
<path d="M135.972 66.119C136.01 66.8851 135.801 67.5171 135.347 68.0151C134.896 68.5128 134.257 68.812 133.43 68.9127C132.525 69.023 131.776 68.806 131.181 68.2619C130.59 67.7142 130.23 66.9087 130.1 65.8456L130.048 65.4142C129.965 64.7357 130.012 64.1233 130.188 63.5772C130.364 63.031 130.657 62.5937 131.066 62.2651C131.478 61.9329 131.978 61.7309 132.566 61.6593C133.38 61.5601 134.063 61.6983 134.614 62.0739C135.164 62.4495 135.527 63.0268 135.7 63.8058L134.246 63.983C134.155 63.5317 133.987 63.2176 133.743 63.0408C133.501 62.8604 133.157 62.7973 132.711 62.8517C132.227 62.9107 131.884 63.1295 131.685 63.508C131.488 63.8829 131.43 64.4358 131.513 65.1669L131.578 65.7001C131.671 66.4627 131.853 67.0061 132.126 67.3304C132.401 67.6542 132.788 67.7859 133.285 67.7252C133.734 67.6705 134.057 67.528 134.251 67.2977C134.449 67.0637 134.538 66.7299 134.518 66.2962L135.972 66.119ZM139.174 64.1795L140.256 60.821L141.845 60.6273L140.076 65.4076L140.388 67.9668L138.91 68.1468L138.598 65.5876L135.733 61.3719L137.328 61.1776L139.174 64.1795ZM148.679 66.0517C148.456 66.397 148.115 66.686 147.659 66.9188C147.201 67.1483 146.682 67.2985 146.1 67.3693C145.489 67.4437 144.937 67.3766 144.442 67.1679C143.951 66.9556 143.548 66.6112 143.234 66.1345C142.924 65.6575 142.723 65.0769 142.634 64.3926L142.575 63.9128C142.489 63.2084 142.533 62.5849 142.706 62.0424C142.882 61.4962 143.177 61.0603 143.59 60.7345C144.006 60.4052 144.514 60.2039 145.115 60.1307C145.952 60.0287 146.631 60.1493 147.151 60.4926C147.671 60.8325 148.022 61.3785 148.202 62.1305L146.786 62.3029C146.673 61.9068 146.493 61.6287 146.247 61.4684C146.004 61.3078 145.689 61.2511 145.301 61.2983C144.807 61.3585 144.453 61.5902 144.24 61.9933C144.027 62.3964 143.963 62.9649 144.049 63.6988L144.104 64.1496C144.194 64.8895 144.403 65.4314 144.73 65.7752C145.057 66.1191 145.492 66.2579 146.035 66.1918C146.581 66.1253 146.957 65.9615 147.161 65.7005L147.013 64.4839L145.689 64.6451L145.559 63.5739L148.336 63.2356L148.679 66.0517ZM155.709 66.1004L154.255 66.2775L150.859 61.9789L151.425 66.6223L149.971 66.7995L149.111 59.7423L150.565 59.5651L153.967 63.8728L153.401 59.2197L154.85 59.0432L155.709 66.1004ZM161.461 58.2378L162.027 62.8861C162.121 63.6584 161.953 64.2986 161.523 64.8068C161.097 65.3146 160.465 65.6195 159.628 65.7214C158.804 65.8218 158.123 65.6834 157.585 65.3062C157.047 64.929 156.727 64.3597 156.625 63.5983L156.052 58.8968L157.506 58.7196L158.073 63.3776C158.13 63.8397 158.281 64.1639 158.526 64.3504C158.775 64.5333 159.095 64.6009 159.486 64.5533C160.303 64.4537 160.666 63.9734 160.574 63.1123L160.002 58.4156L161.461 58.2378ZM166.947 62.8525C166.914 62.5778 166.791 62.3796 166.579 62.2578C166.367 62.1328 166 62.0202 165.476 61.92C164.952 61.8166 164.533 61.7037 164.22 61.5811C163.365 61.2458 162.894 60.7113 162.804 59.9778C162.758 59.5965 162.823 59.2442 163 58.921C163.18 58.5941 163.46 58.3222 163.84 58.1054C164.224 57.8882 164.666 57.749 165.167 57.688C165.671 57.6266 166.131 57.664 166.548 57.8002C166.964 57.9331 167.301 58.1528 167.558 58.4592C167.818 58.7653 167.974 59.13 168.026 59.5533L166.572 59.7304C166.532 59.4073 166.4 59.1693 166.175 59.0163C165.949 58.8602 165.652 58.8045 165.284 58.8494C164.928 58.8927 164.661 59.0023 164.483 59.1782C164.304 59.3508 164.229 59.5599 164.259 59.8055C164.287 60.035 164.425 60.2132 164.673 60.3404C164.925 60.4672 165.284 60.571 165.749 60.652C166.607 60.8001 167.247 61.0353 167.67 61.3576C168.093 61.6799 168.338 62.1157 168.405 62.665C168.479 63.2758 168.307 63.7838 167.887 64.189C167.467 64.5911 166.866 64.8397 166.084 64.935C165.541 65.0011 165.035 64.9628 164.565 64.82C164.095 64.674 163.72 64.4424 163.442 64.1254C163.168 63.808 163.003 63.4215 162.947 62.9659L164.406 62.7882C164.501 63.5669 165.014 63.8996 165.944 63.7862C166.29 63.7441 166.551 63.6418 166.728 63.4792C166.905 63.3134 166.978 63.1045 166.947 62.8525Z" fill="#A8A0A0"/>
</svg>
