<?xml version="1.0"?>
<svg xmlns="http://www.w3.org/2000/svg" xmlns:xlink="http://www.w3.org/1999/xlink" xmlns:svgjs="http://svgjs.com/svgjs" version="1.1" width="512" height="512" x="0" y="0" viewBox="0 0 510.702 510.702" style="enable-background:new 0 0 512 512" xml:space="preserve" class=""><g><g xmlns="http://www.w3.org/2000/svg"><path d="m169.28 292.643c-27.255 0-49.429 22.173-49.429 49.428s22.174 49.429 49.429 49.429 49.428-22.174 49.428-49.429-22.174-49.428-49.428-49.428zm0 68.857c-10.713 0-19.429-8.716-19.429-19.429s8.716-19.428 19.429-19.428 19.428 8.715 19.428 19.428-8.716 19.429-19.428 19.429z" fill="#ffffff" data-original="#000000" style="" class=""/><path d="m459.708 113.738c19.943-6.367 34.429-25.068 34.429-47.094 0-27.255-22.174-49.429-49.429-49.429-22.027 0-40.728 14.486-47.095 34.429h-43.525c-6.367-19.943-25.068-34.429-47.095-34.429h-93.066c-11.824-10.693-27.487-17.215-44.647-17.215-36.747 0-66.643 29.896-66.643 66.643 0 13.958 4.321 26.921 11.685 37.639l-21.031 147.218c-25.841 21.715-42.297 54.256-42.297 90.572v69.773h-34.429v98.857h305.429v-98.857h-34.429v-69.773c0-36.316-16.456-68.856-42.297-90.572l-19.347-135.428h81.073c22.027 0 40.728-14.485 47.095-34.428h43.525c4.856 15.209 16.885 27.239 32.095 32.094v110.048h-34.429v59.649l8.643 28.554 28.713-8.691-7.356-24.304v-25.208h38.857v25.208l-7.356 24.304 28.713 8.691 8.644-28.554v-59.649h-34.429v-110.048zm-290.428-83.738c20.205 0 36.643 16.438 36.643 36.643s-16.438 36.643-36.643 36.643-36.643-16.438-36.643-36.643c-.001-20.205 16.437-36.643 36.643-36.643zm122.714 450.702h-245.429v-38.857h245.429zm-34.429-138.631v69.773h-176.571v-69.773c0-48.681 39.605-88.286 88.286-88.286s88.285 39.606 88.285 88.286zm-88.285-118.285c-15.115 0-29.575 2.854-42.875 8.045l14.957-104.697c8.498 3.938 17.952 6.152 27.918 6.152s19.419-2.214 27.918-6.152l14.957 104.697c-13.301-5.191-27.76-8.045-42.875-8.045zm137.714-137.715h-73.968c1.878-6.15 2.897-12.672 2.897-19.428 0-6.757-1.019-13.279-2.897-19.429h73.969c10.713 0 19.428 8.716 19.428 19.429s-8.716 19.428-19.429 19.428zm137.714-38.857c10.713 0 19.429 8.716 19.429 19.429s-8.716 19.428-19.429 19.428-19.428-8.715-19.428-19.428 8.715-19.429 19.428-19.429z" fill="#ffffff" data-original="#000000" style="" class=""/><path d="m154.28 51.643h30v30h-30z" fill="#ffffff" data-original="#000000" style="" class=""/></g></g></svg>
