<svg width="238" height="238" viewBox="0 0 238 238" fill="none" xmlns="http://www.w3.org/2000/svg">
<path d="M34.6871 65.6555H18.2723C16.0062 65.6555 14.1704 63.8179 14.1704 61.5518C14.1704 59.2857 16.0062 57.4481 18.2723 57.4481H34.6871C36.9532 57.4481 38.7908 59.2857 38.7908 61.5518C38.7908 63.8179 36.9532 65.6555 34.6871 65.6555Z" fill="#BDC3C7"/>
<path d="M51.1 28.7241C42.0319 28.7241 34.687 43.4138 34.687 61.5518C34.687 79.6898 42.0319 94.3796 51.1 94.3796V28.7241Z" fill="#802F34"/>
<path d="M18.2724 61.5519C18.2724 66.0841 14.599 69.7593 10.0668 69.7593C5.53455 69.7593 1.85938 66.0841 1.85938 61.5519C1.85938 57.0197 5.53455 53.3445 10.0668 53.3445C14.599 53.3445 18.2724 57.0197 18.2724 61.5519Z" fill="#DF4D60"/>
<path d="M219.343 65.6555H202.928C200.662 65.6555 198.824 63.8179 198.824 61.5518C198.824 59.2857 200.662 57.4481 202.928 57.4481H219.343C221.609 57.4481 223.446 59.2857 223.446 61.5518C223.446 63.8179 221.609 65.6555 219.343 65.6555Z" fill="#BDC3C7"/>
<path d="M186.515 94.3796C195.583 94.3796 202.928 79.6898 202.928 61.5518C202.928 43.4138 195.583 28.7241 186.515 28.7241V94.3796Z" fill="#802F34"/>
<path d="M235.756 61.5519C235.756 66.0841 232.082 69.7593 227.548 69.7593C223.016 69.7593 219.343 66.0841 219.343 61.5519C219.343 57.0197 223.016 53.3445 227.548 53.3445C232.082 53.3445 235.756 57.0197 235.756 61.5519Z" fill="#DF4D60"/>
<path d="M235.756 61.5519C235.756 66.0841 232.082 69.7593 227.548 69.7593C223.016 69.7593 219.343 66.0841 219.343 61.5519C219.343 57.0197 223.016 53.3445 227.548 53.3445C232.082 53.3445 235.756 57.0197 235.756 61.5519Z" fill="#DF4D60"/>
<path d="M110.6 114.896H127.015V144.112H110.6V114.896Z" fill="#802F34"/>
<path d="M69.5668 0H168.048C179.381 0 188.567 9.18611 188.567 20.5167V102.587C188.567 113.918 179.381 123.104 168.048 123.104H69.5668C58.2345 123.104 49.0483 113.918 49.0483 102.587V20.5167C49.0483 9.18611 58.2345 0 69.5668 0Z" fill="#FF5364"/>
<path d="M164.931 20.6401C164.609 20.5584 164.277 20.5185 163.946 20.5167H73.6705C71.4025 20.5167 69.5668 22.3542 69.5668 24.6204V98.4833C69.5595 98.5795 69.574 98.6776 69.6067 98.7702C69.6993 100.354 70.7107 101.734 72.1924 102.298C72.6591 102.5 73.1621 102.598 73.6705 102.587H163.946C166.213 102.587 168.048 100.749 168.048 98.4833V24.6204C168.048 22.7356 166.761 21.0923 164.931 20.6401Z" fill="#F0C419"/>
<path d="M189.42 191.528C189.159 191.528 188.897 191.503 188.639 191.45C186.417 191.02 184.962 188.87 185.391 186.646L189.277 166.501L169.132 162.612C167.66 162.368 166.434 161.344 165.935 159.939C165.434 158.532 165.737 156.965 166.725 155.846C167.712 154.728 169.23 154.234 170.688 154.557L190.835 158.446C195.285 159.307 198.194 163.61 197.335 168.061L193.446 188.2C193.074 190.13 191.385 191.526 189.42 191.528Z" fill="#802F34"/>
<path d="M195.133 205.172C194.87 205.172 194.606 205.147 194.348 205.094C192.126 204.664 190.671 202.516 191.098 200.293L192.671 192.235L184.61 190.675L183.056 198.733C182.626 200.959 180.474 202.416 178.248 201.985C176.023 201.557 174.567 199.405 174.996 197.179L176.552 189.124C176.96 186.983 178.202 185.093 180.007 183.869C181.81 182.647 184.026 182.191 186.166 182.604L194.225 184.163C198.675 185.022 201.584 189.327 200.726 193.776L199.169 201.827C198.804 203.769 197.107 205.174 195.133 205.172Z" fill="#802F34"/>
<path d="M48.1947 191.528C46.23 191.526 44.5413 190.13 44.1691 188.2L40.2796 168.057C39.4226 163.609 42.3315 159.307 46.7802 158.446L66.9282 154.557C69.1199 154.195 71.2026 155.644 71.6239 157.827C72.0452 160.01 70.6524 162.13 68.4826 162.612L48.3345 166.501L52.2257 186.646C52.6543 188.87 51.198 191.02 48.9755 191.45C48.7176 191.503 48.458 191.528 48.1947 191.528Z" fill="#802F34"/>
<path d="M42.4841 205.172C40.5195 205.168 38.8326 203.774 38.4622 201.844L36.906 193.789C36.049 189.34 38.9597 185.04 43.4066 184.18L51.4614 182.62C53.6005 182.206 55.8157 182.658 57.6188 183.878C59.4237 185.098 60.6675 186.985 61.0797 189.124L62.6359 197.179C63.0644 199.405 61.6081 201.557 59.3838 201.985C57.1576 202.416 55.0059 200.959 54.5755 198.733L53.0212 190.678L44.9464 192.235L46.5007 200.293C46.9274 202.516 45.4729 204.664 43.2504 205.094C42.998 205.145 42.742 205.172 42.4841 205.172Z" fill="#802F34"/>
<path d="M138.503 20.5167C95.1314 35.6586 75.844 80.4688 69.6067 98.7702C69.574 98.6776 69.5595 98.5795 69.5668 98.4833V24.6204C69.5668 22.3542 71.4025 20.5167 73.6705 20.5167H138.503Z" fill="#F3D55B"/>
<path d="M98.2909 41.0352C102.823 41.0352 106.496 44.7085 106.496 49.2407V73.8629C106.496 78.3952 102.823 82.0685 98.2909 82.0685C93.7587 82.0685 90.0835 78.3952 90.0835 73.8629V49.2407C90.0835 44.7085 93.7587 41.0352 98.2909 41.0352Z" fill="#2C2F38"/>
<path d="M139.324 41.0352C143.858 41.0352 147.532 44.7085 147.532 49.2407V73.8629C147.532 78.3952 143.858 82.0685 139.324 82.0685C134.792 82.0685 131.119 78.3952 131.119 73.8629V49.2407C131.119 44.7085 134.792 41.0352 139.324 41.0352Z" fill="#2C2F38"/>
<path d="M134.63 209.276H102.985C100.076 209.276 97.3848 207.736 95.9104 205.23L64.5316 151.886C63.0372 149.346 63.019 146.201 64.4844 143.644C65.9497 141.087 68.6716 139.513 71.6186 139.517H165.996C168.942 139.517 171.66 141.095 173.122 143.649C174.583 146.204 174.563 149.347 173.071 151.886L141.692 205.23C140.219 207.732 137.534 209.272 134.63 209.276Z" fill="#F0C419"/>
<path d="M69.567 217.483H81.8762C84.1423 217.483 85.9799 219.319 85.9799 221.587V233.896C85.9799 236.162 84.1423 238 81.8762 238H61.3596C59.0934 238 57.2559 236.162 57.2559 233.896V229.793C57.2559 222.994 62.7668 217.483 69.567 217.483Z" fill="#DF4D60"/>
<path d="M77.7723 221.587C75.5062 221.587 73.6704 219.749 73.6704 217.483V213.38C73.6668 203.476 80.7502 194.989 90.4938 193.219C91.9555 192.908 93.4717 193.419 94.4486 194.55C95.4273 195.679 95.7124 197.254 95.1949 198.655C94.6755 200.057 93.4372 201.067 91.9591 201.29C86.1177 202.354 81.8742 207.442 81.876 213.38V217.483C81.876 219.749 80.0402 221.587 77.7723 221.587Z" fill="#802F34"/>
<path d="M176.256 238H155.739C153.473 238 151.635 236.162 151.635 233.896V221.587C151.635 219.319 153.473 217.483 155.739 217.483H168.048C174.848 217.483 180.359 222.994 180.359 229.793V233.896C180.359 236.162 178.522 238 176.256 238Z" fill="#DF4D60"/>
<path d="M159.843 221.587C157.577 221.587 155.739 219.749 155.739 217.483V213.38C155.741 207.442 151.496 202.352 145.652 201.29C144.174 201.067 142.934 200.057 142.417 198.655C141.899 197.254 142.184 195.679 143.163 194.55C144.14 193.419 145.656 192.908 147.118 193.219C156.863 194.987 163.948 203.475 163.947 213.38V217.483C163.947 219.749 162.109 221.587 159.843 221.587Z" fill="#802F34"/>
<path d="M122.911 160.035C122.376 160.028 121.845 159.917 121.352 159.707C120.845 159.518 120.384 159.224 119.997 158.844C119.249 158.058 118.824 157.017 118.808 155.931C118.815 155.394 118.926 154.866 119.136 154.372C119.509 153.34 120.32 152.529 121.352 152.156C122.882 151.537 124.635 151.875 125.824 153.017C126.187 153.417 126.478 153.874 126.686 154.372C126.897 154.866 127.008 155.394 127.015 155.931C127.026 157.023 126.597 158.072 125.826 158.844C125.052 159.618 124.003 160.046 122.911 160.035Z" fill="#DF4D60"/>
<path d="M122.911 176.448C120.645 176.448 118.808 174.611 118.808 172.344V168.241C118.808 165.975 120.645 164.137 122.911 164.137C125.177 164.137 127.015 165.975 127.015 168.241V172.344C127.015 174.611 125.177 176.448 122.911 176.448Z" fill="#2C2F38"/>
<path d="M139.324 160.035C138.788 160.028 138.258 159.917 137.766 159.707C137.258 159.518 136.796 159.224 136.412 158.844C135.662 158.058 135.237 157.017 135.222 155.931C135.228 155.394 135.34 154.866 135.549 154.372C135.923 153.34 136.735 152.529 137.766 152.156C139.297 151.537 141.047 151.875 142.238 153.017C142.6 153.417 142.892 153.874 143.099 154.372C143.31 154.866 143.422 155.394 143.428 155.931C143.439 157.023 143.01 158.072 142.238 158.844C141.467 159.618 140.417 160.046 139.324 160.035Z" fill="#DF4D60"/>
<path d="M139.324 176.448C137.058 176.448 135.222 174.611 135.222 172.344V168.241C135.222 165.975 137.058 164.137 139.324 164.137C141.59 164.137 143.428 165.975 143.428 168.241V172.344C143.428 174.611 141.59 176.448 139.324 176.448Z" fill="#2C2F38"/>
<path d="M106.497 160.035H90.0837C87.8176 160.035 85.98 158.198 85.98 155.931C85.98 153.665 87.8176 151.828 90.0837 151.828H106.497C108.765 151.828 110.6 153.665 110.6 155.931C110.6 158.198 108.765 160.035 106.497 160.035Z" fill="#DF4D60"/>
<path d="M98.2907 176.448C97.7532 176.441 97.2248 176.33 96.7309 176.119C96.2243 175.932 95.7631 175.638 95.3764 175.259C94.6282 174.471 94.2034 173.43 94.187 172.344C94.1925 171.809 94.305 171.279 94.5157 170.785C94.8879 169.755 95.6996 168.943 96.7309 168.569C98.2617 167.95 100.012 168.288 101.203 169.432C101.566 169.831 101.857 170.289 102.066 170.785C102.276 171.279 102.387 171.809 102.394 172.344C102.405 173.436 101.977 174.487 101.203 175.259C100.432 176.03 99.382 176.459 98.2907 176.448Z" fill="#802F34"/>
</svg>
