<?xml version="1.0" encoding="iso-8859-1"?>
<!-- Generator: Adobe Illustrator 19.0.0, SVG Export Plug-In . SVG Version: 6.00 Build 0)  -->
<svg version="1.1" id="Capa_1" xmlns="http://www.w3.org/2000/svg" xmlns:xlink="http://www.w3.org/1999/xlink" x="0px" y="0px"
	 viewBox="0 0 508 508" style="enable-background:new 0 0 508 508;" xml:space="preserve">
<g>
	<g>
		<path d="M122.9,16.45C54,16.45,0,45.25,0,81.95v344.1c0,36.8,54,65.5,122.9,65.5s122.9-28.8,122.9-65.5V81.95
			C245.8,45.25,191.8,16.45,122.9,16.45z M229.4,426.15c0,23.7-42.8,49.2-106.5,49.2s-106.5-25.5-106.5-49.2v-16.1
			c21,19.6,60.4,32.5,106.5,32.5c46.1,0,85.5-12.9,106.5-32.5V426.15z M229.4,376.95c0,23.7-42.8,49.2-106.5,49.2
			s-106.5-25.5-106.5-49.2v-16.1c21,19.6,60.4,32.5,106.5,32.5c46.1,0,85.5-12.9,106.5-32.5V376.95z M229.4,327.75
			c0,23.7-42.8,49.2-106.5,49.2s-106.5-25.4-106.5-49.2v-16.1c21,19.6,60.4,32.5,106.5,32.5c46.1,0,85.5-12.9,106.5-32.5V327.75z
			 M229.4,278.65c0,23.7-42.8,49.2-106.5,49.2s-106.5-25.5-106.5-49.2v-16.1c21,19.5,60.4,32.5,106.5,32.5
			c46.1,0,85.5-12.9,106.5-32.5V278.65z M229.4,229.45c0,23.7-42.8,49.2-106.5,49.2s-106.5-25.4-106.5-49.2v-16.1
			c21,19.6,60.4,32.5,106.5,32.5c46.1,0,85.5-12.9,106.5-32.5V229.45z M229.4,180.35c0,23.7-42.8,49.2-106.5,49.2
			s-106.5-25.5-106.5-49.2v-16.1c21,19.6,60.4,32.5,106.5,32.5c46.1,0,85.5-12.9,106.5-32.5V180.35z M229.4,131.15
			c0,23.7-42.8,49.2-106.5,49.2s-106.5-25.5-106.5-49.2v-16.1c21,19.6,60.4,32.5,106.5,32.5c46.1,0,85.5-12.9,106.5-32.5V131.15z
			 M122.9,131.15c-63.7,0-106.5-25.4-106.5-49.2c0-23.7,42.8-49.2,106.5-49.2s106.5,25.4,106.5,49.2
			C229.4,105.75,186.6,131.15,122.9,131.15z"/>
	</g>
</g>
<g>
	<g>
		<path d="M385.1,213.05c-68.9,0-122.9,28.8-122.9,65.5v147.5c0,36.8,54,65.5,122.9,65.5s122.9-28.7,122.9-65.4v-147.5
			C508,241.85,454,213.05,385.1,213.05z M491.6,426.15c0,23.7-42.8,49.2-106.5,49.2s-106.5-25.4-106.5-49.2v-16.1
			c21,19.6,60.4,32.5,106.5,32.5c46.1,0,85.5-12.9,106.5-32.5V426.15z M491.6,376.95c0,23.7-42.8,49.2-106.5,49.2
			s-106.5-25.4-106.5-49.2v-16.1c21,19.6,60.4,32.5,106.5,32.5c46.1,0,85.5-12.9,106.5-32.5V376.95z M491.6,327.75
			c0,23.7-42.8,49.2-106.5,49.2s-106.5-25.4-106.5-49.2v-16.1c21,19.6,60.4,32.5,106.5,32.5c46.1,0,85.5-12.9,106.5-32.5V327.75z
			 M385.1,327.75c-63.7,0-106.5-25.4-106.5-49.2c0-23.7,42.8-49.2,106.5-49.2s106.5,25.4,106.5,49.2S448.8,327.75,385.1,327.75z"/>
	</g>
</g>
<g>
</g>
<g>
</g>
<g>
</g>
<g>
</g>
<g>
</g>
<g>
</g>
<g>
</g>
<g>
</g>
<g>
</g>
<g>
</g>
<g>
</g>
<g>
</g>
<g>
</g>
<g>
</g>
<g>
</g>
</svg>
