<svg id="Capa_1" enable-background="new 0 0 512 512" height="512" viewBox="0 0 512 512" width="512" xmlns="http://www.w3.org/2000/svg"><g><path d="m272.71 248.203h-9.225v-20.243c0-4.142-3.357-7.5-7.5-7.5s-7.5 3.358-7.5 7.5v27.743c0 4.142 3.357 7.5 7.5 7.5h16.725c4.143 0 7.5-3.358 7.5-7.5s-3.357-7.5-7.5-7.5z"/><path d="m255.985 185.377c-34.583 0-62.719 28.255-62.719 62.986s28.136 62.986 62.719 62.986c34.584 0 62.72-28.255 62.72-62.986s-28.136-62.986-62.72-62.986zm0 110.972c-26.312 0-47.719-21.526-47.719-47.986 0-26.459 21.406-47.986 47.719-47.986s47.72 21.526 47.72 47.986-21.407 47.986-47.72 47.986z"/><path d="m58.24 326.255h69.308c6.104 0 11.071-4.966 11.071-11.071v-34.516c0-6.104-4.967-11.071-11.071-11.071h-69.308c-6.12 0-11.1 4.966-11.1 11.071v34.516c.001 6.105 4.98 11.071 11.1 11.071zm42.14-41.657h23.239v26.657h-23.239zm-38.239 0h23.239v26.657h-23.239z"/><path d="m47.141 390.167c0 6.12 4.979 11.099 11.1 11.099h69.308c6.104 0 11.071-4.979 11.071-11.099v-34.487c0-6.12-4.967-11.099-11.071-11.099h-69.309c-6.12 0-11.1 4.979-11.1 11.099v34.487zm53.239-30.586h23.239v26.686h-23.239zm-38.239 0h23.239v26.686h-23.239z"/><path d="m384.452 326.255h69.308c6.104 0 11.071-4.966 11.071-11.071v-34.516c0-6.104-4.967-11.071-11.071-11.071h-69.308c-6.12 0-11.1 4.966-11.1 11.071v34.516c.001 6.105 4.98 11.071 11.1 11.071zm42.14-41.657h23.239v26.657h-23.239zm-38.239 0h23.239v26.657h-23.239z"/><path d="m384.452 401.266h69.308c6.104 0 11.071-4.979 11.071-11.099v-34.487c0-6.12-4.967-11.099-11.071-11.099h-69.308c-6.12 0-11.1 4.979-11.1 11.099v34.487c.001 6.12 4.98 11.099 11.1 11.099zm42.14-41.685h23.239v26.686h-23.239zm-38.239 0h23.239v26.686h-23.239z"/><path d="m501.921 188.976h-144.637v-22.435h9.196c6.026 0 10.93-4.916 10.93-10.958v-31.229c0-6.042-4.903-10.957-10.93-10.957h-102.995v-22.065h59.455c7.465 0 13.538-6.085 13.538-13.564v-43.217c0-7.479-6.073-13.564-13.538-13.564h-59.455v-4.487c0-4.142-3.357-7.5-7.5-7.5s-7.5 3.358-7.5 7.5v11.987 55.345 29.566h-102.965c-6.042 0-10.958 4.916-10.958 10.957v31.229c0 6.042 4.916 10.958 10.958 10.958h9.196v22.435h-144.665c-5.542-.001-10.051 4.52-10.051 10.078v26.326c0 5.558 4.509 10.079 10.051 10.079h4.859v99.958c0 4.142 3.357 7.5 7.5 7.5s7.5-3.358 7.5-7.5v-99.958h124.806v252.54h-124.806v-117.953c0-4.142-3.357-7.5-7.5-7.5s-7.5 3.358-7.5 7.5v120.919c0 6.636 5.412 12.034 12.063 12.034h458.053c6.636 0 12.035-5.398 12.035-12.034v-255.507h4.859c5.558 0 10.079-4.521 10.079-10.079v-26.326c.001-5.557-4.52-10.078-10.078-10.078zm-238.436-152.989h57.993v40.345h-57.993zm-108.769 184.472h-139.716v-16.484h139.716zm342.284-16.483v16.484h-7.438-132.278v-16.484zm-189.156 284.024h-103.716v-18.241h6.646 90.425 6.646v18.241zm-89.571-33.241v-87.244h30.212v87.244zm45.212 0v-87.244h30.213v87.244zm45.213.019v-89.464c0-7.058-5.742-12.799-12.801-12.799h-79.795c-7.074 0-12.829 5.742-12.829 12.799v89.465c-7.835.213-14.146 6.403-14.146 13.998v19.223h-19.412v-321.459h68.015c4.143 0 7.5-3.358 7.5-7.5s-3.357-7.5-7.5-7.5h-88.169v-23.143h212.849v23.143h-91.287c-4.143 0-7.5 3.358-7.5 7.5s3.357 7.5 7.5 7.5h71.161v321.459h-19.44v-19.223c0-7.604-6.313-13.8-14.146-13.999zm173.364 33.222h-124.778v-252.541h124.777v252.541z"/></g></svg>