<svg width="910" height="901" viewBox="0 0 910 901" fill="none" xmlns="http://www.w3.org/2000/svg">
<g clip-path="url(#clip0)">
<path d="M541.884 50.7442H522.206C520.205 28.8741 501.813 11.7212 479.419 11.7212C472.605 11.7212 465.934 13.3412 459.883 16.4382C449.591 5.95585 435.583 -4.66596e-05 420.86 -4.66596e-05C391.986 -0.0476938 368.258 22.4894 366.352 50.8871C348.77 52.793 335 67.7542 335 85.8602C335 105.205 350.771 120.976 370.116 120.976H541.884C561.276 120.976 577 105.205 577 85.8602C577 66.5154 561.229 50.7442 541.884 50.7442ZM541.884 113.162H370.116C355.059 113.162 342.766 100.917 342.766 85.8125C342.766 70.7084 355.059 58.5107 370.116 58.5107H374.023V54.6036C374.023 28.7789 395.035 7.76644 420.86 7.76644C434.392 7.76644 447.257 13.627 456.167 23.8712L458.311 26.3488L461.122 24.6335C466.649 21.2506 472.986 19.44 479.419 19.44C498.811 19.44 514.535 35.2112 514.535 54.556V58.463H541.884C556.941 58.463 569.234 70.7084 569.234 85.8125C569.234 100.917 556.988 113.162 541.884 113.162Z" fill="black"/>
<path d="M514.535 226.372V156.092H413.046V226.372H413.094H448.21V234.186H436.489V242H448.21H479.419H491.14V234.186H479.419V226.372H514.535ZM471.652 234.186H456.024V226.372H471.652V234.186ZM448.257 218.558H420.908V163.906H506.816V218.558H479.466H448.257Z" fill="black"/>
<path d="M338.907 163.906V242H393.558V163.906H338.907ZM385.744 234.186H346.721V171.72H385.744V234.186Z" fill="black"/>
<path d="M534.118 179.535V242H573.141V179.535H534.118ZM541.884 187.349H565.327V218.558H541.884V187.349ZM565.374 234.186H541.932V226.372H565.374V234.186Z" fill="black"/>
<path d="M370.164 222.465H362.35V230.279H370.164V222.465Z" fill="black"/>
<path d="M409.187 128.79V136.604H362.35V156.092H370.116V144.419H417.001V128.79H409.187Z" fill="black"/>
<path d="M510.675 136.604V128.79H502.861V144.419H549.698V156.092H557.512V136.604H510.675Z" fill="black"/>
<path d="M467.745 128.79H459.931V152.233H467.745V128.79Z" fill="black"/>
</g>
<g clip-path="url(#clip1)">
<path d="M874.884 375.744H855.206C853.205 353.874 834.813 336.721 812.419 336.721C805.605 336.721 798.934 338.341 792.883 341.438C782.591 330.956 768.583 325 753.86 325C724.986 324.952 701.258 347.489 699.352 375.887C681.77 377.793 668 392.754 668 410.86C668 430.205 683.771 445.976 703.116 445.976H874.884C894.276 445.976 910 430.205 910 410.86C910 391.515 894.229 375.744 874.884 375.744ZM874.884 438.162H703.116C688.059 438.162 675.766 425.917 675.766 410.812C675.766 395.708 688.059 383.511 703.116 383.511H707.023V379.604C707.023 353.779 728.035 332.766 753.86 332.766C767.392 332.766 780.257 338.627 789.167 348.871L791.311 351.349L794.122 349.633C799.649 346.25 805.986 344.44 812.419 344.44C831.811 344.44 847.535 360.211 847.535 379.556V383.463H874.884C889.941 383.463 902.234 395.708 902.234 410.812C902.234 425.917 889.988 438.162 874.884 438.162Z" fill="black"/>
<path d="M847.535 551.372V481.092H746.046V551.372H746.094H781.21V559.186H769.489V567H781.21H812.419H824.14V559.186H812.419V551.372H847.535ZM804.652 559.186H789.024V551.372H804.652V559.186ZM781.257 543.557H753.908V488.906H839.816V543.557H812.466H781.257Z" fill="black"/>
<path d="M671.907 488.906V567H726.558V488.906H671.907ZM718.744 559.186H679.721V496.72H718.744V559.186Z" fill="black"/>
<path d="M867.118 504.534V567H906.141V504.534H867.118ZM874.884 512.349H898.327V543.557H874.884V512.349ZM898.374 559.186H874.932V551.372H898.374V559.186Z" fill="black"/>
<path d="M703.164 547.465H695.35V555.279H703.164V547.465Z" fill="black"/>
<path d="M742.187 453.79V461.604H695.35V481.092H703.116V469.419H750.001V453.79H742.187Z" fill="black"/>
<path d="M843.675 461.604V453.79H835.861V469.419H882.698V481.092H890.512V461.604H843.675Z" fill="black"/>
<path d="M800.745 453.79H792.931V477.233H800.745V453.79Z" fill="black"/>
</g>
<g clip-path="url(#clip2)">
<path d="M554.884 709.744H535.206C533.205 687.874 514.813 670.721 492.419 670.721C485.605 670.721 478.934 672.341 472.883 675.438C462.591 664.956 448.583 659 433.86 659C404.986 658.952 381.258 681.489 379.352 709.887C361.77 711.793 348 726.754 348 744.86C348 764.205 363.771 779.976 383.116 779.976H554.884C574.276 779.976 590 764.205 590 744.86C590 725.515 574.229 709.744 554.884 709.744ZM554.884 772.162H383.116C368.059 772.162 355.766 759.917 355.766 744.812C355.766 729.708 368.059 717.511 383.116 717.511H387.023V713.604C387.023 687.779 408.035 666.766 433.86 666.766C447.392 666.766 460.257 672.627 469.167 682.871L471.311 685.349L474.122 683.633C479.649 680.25 485.986 678.44 492.419 678.44C511.811 678.44 527.535 694.211 527.535 713.556V717.463H554.884C569.941 717.463 582.234 729.708 582.234 744.812C582.234 759.917 569.988 772.162 554.884 772.162Z" fill="black"/>
<path d="M527.535 885.372V815.092H426.046V885.372H426.094H461.21V893.186H449.489V901H461.21H492.419H504.14V893.186H492.419V885.372H527.535ZM484.652 893.186H469.024V885.372H484.652V893.186ZM461.257 877.557H433.908V822.906H519.816V877.557H492.466H461.257Z" fill="black"/>
<path d="M351.907 822.906V901H406.558V822.906H351.907ZM398.744 893.186H359.721V830.72H398.744V893.186Z" fill="black"/>
<path d="M547.118 838.534V901H586.141V838.534H547.118ZM554.884 846.349H578.327V877.557H554.884V846.349ZM578.374 893.186H554.932V885.372H578.374V893.186Z" fill="black"/>
<path d="M383.164 881.465H375.35V889.279H383.164V881.465Z" fill="black"/>
<path d="M422.187 787.79V795.604H375.35V815.092H383.116V803.419H430.001V787.79H422.187Z" fill="black"/>
<path d="M523.675 795.604V787.79H515.861V803.419H562.698V815.092H570.512V795.604H523.675Z" fill="black"/>
<path d="M480.745 787.79H472.931V811.233H480.745V787.79Z" fill="black"/>
</g>
<g clip-path="url(#clip3)">
<path d="M206.884 355.744H187.206C185.205 333.874 166.813 316.721 144.419 316.721C137.605 316.721 130.934 318.341 124.883 321.438C114.591 310.956 100.583 305 85.8602 305C56.986 304.952 33.2577 327.489 31.3518 355.887C13.77 357.793 0 372.754 0 390.86C0 410.205 15.7712 425.976 35.116 425.976H206.884C226.276 425.976 242 410.205 242 390.86C242 371.515 226.229 355.744 206.884 355.744ZM206.884 418.162H35.116C20.0595 418.162 7.76649 405.917 7.76649 390.812C7.76649 375.708 20.0595 363.511 35.116 363.511H39.023V359.604C39.023 333.779 60.0354 312.766 85.8602 312.766C99.392 312.766 112.257 318.627 121.167 328.871L123.311 331.349L126.122 329.633C131.649 326.25 137.986 324.44 144.419 324.44C163.811 324.44 179.535 340.211 179.535 359.556V363.463H206.884C221.941 363.463 234.234 375.708 234.234 390.812C234.234 405.917 221.988 418.162 206.884 418.162Z" fill="black"/>
<path d="M179.535 531.372V461.092H78.0461V531.372H78.0938H113.21V539.186H101.489V547H113.21H144.419H156.14V539.186H144.419V531.372H179.535ZM136.652 539.186H121.024V531.372H136.652V539.186ZM113.257 523.557H85.9079V468.906H171.816V523.557H144.466H113.257Z" fill="black"/>
<path d="M3.90698 468.906V547H58.5583V468.906H3.90698ZM50.7442 539.186H11.7211V476.72H50.7442V539.186Z" fill="black"/>
<path d="M199.118 484.534V547H238.141V484.534H199.118ZM206.884 492.349H230.327V523.557H206.884V492.349ZM230.374 539.186H206.932V531.372H230.374V539.186Z" fill="black"/>
<path d="M35.1637 527.465H27.3496V535.279H35.1637V527.465Z" fill="black"/>
<path d="M74.1868 433.79V441.604H27.3496V461.092H35.1161V449.419H82.0009V433.79H74.1868Z" fill="black"/>
<path d="M175.675 441.604V433.79H167.861V449.419H214.698V461.092H222.512V441.604H175.675Z" fill="black"/>
<path d="M132.745 433.79H124.931V457.233H132.745V433.79Z" fill="black"/>
</g>
<g clip-path="url(#clip4)">
<path d="M130.62 235.332C132.425 234.577 133.276 232.502 132.521 230.698C115.218 189.194 134.775 141.516 176.24 124.118L240.235 97.3535L220.665 145.048C219.954 146.87 220.855 148.924 222.677 149.635C224.455 150.328 226.462 149.488 227.217 147.736L250.027 92.1295C250.771 90.3208 249.909 88.251 248.1 87.5063C248.097 87.5052 248.094 87.504 248.092 87.5029L192.485 64.693C190.688 63.9195 188.605 64.7487 187.831 66.5451C187.058 68.3416 187.887 70.4249 189.683 71.1988C189.721 71.215 189.759 71.2305 189.797 71.2455L237.502 90.8189L173.507 117.584C128.436 136.493 107.178 188.318 125.987 233.431C126.741 235.235 128.816 236.086 130.62 235.332Z" fill="#2196F3"/>
<path d="M189.782 64.7102C190.649 64.346 191.624 64.341 192.494 64.6969L248.101 87.5068C249.91 88.2491 250.775 90.3174 250.033 92.1269L227.224 147.734C226.45 149.53 224.366 150.359 222.57 149.586C220.817 148.831 219.978 146.823 220.671 145.046L242.135 92.7196L189.809 71.2555C187.999 70.5156 187.131 68.4477 187.871 66.6372C188.227 65.7666 188.914 65.0732 189.782 64.7102Z" fill="black"/>
<path d="M173.507 117.584L245.389 87.52C247.193 86.7653 249.268 87.6164 250.023 89.4209C250.778 91.2254 249.927 93.3002 248.122 94.0549L176.24 124.119C134.775 141.516 115.218 189.194 132.521 230.698C133.276 232.502 132.425 234.577 130.62 235.332C128.816 236.087 126.741 235.236 125.986 233.431C107.178 188.318 128.436 136.493 173.507 117.584Z" fill="black"/>
</g>
<g clip-path="url(#clip5)">
<path d="M644.386 81.6738C645.228 83.4392 647.342 84.1878 649.107 83.3457C689.715 64.0326 738.293 81.2343 757.697 121.798L787.561 184.407L738.966 167.193C737.112 166.573 735.105 167.573 734.484 169.428C733.878 171.238 734.815 173.201 736.602 173.869L793.258 193.931C795.101 194.587 797.126 193.624 797.781 191.781C797.782 191.778 797.783 191.775 797.784 191.772L817.847 135.116C818.531 133.284 817.601 131.244 815.769 130.559C813.937 129.874 811.897 130.804 811.211 132.636C811.197 132.675 811.183 132.713 811.17 132.752L793.954 181.357L764.091 118.749C742.999 74.6572 690.196 55.9596 646.057 76.9528C644.292 77.7947 643.543 79.9084 644.386 81.6738Z" fill="#2196F3"/>
<path d="M817.697 132.418C818.103 133.265 818.156 134.24 817.843 135.126L797.781 191.782C797.128 193.625 795.105 194.59 793.261 193.938L736.605 173.876C734.773 173.191 733.843 171.151 734.528 169.318C735.196 167.531 737.16 166.594 738.969 167.2L792.283 186.078L811.161 132.765C811.812 130.92 813.834 129.952 815.679 130.603C816.566 130.916 817.292 131.569 817.697 132.418Z" fill="black"/>
<path d="M764.091 118.748L797.635 189.073C798.477 190.839 797.729 192.953 795.963 193.795C794.198 194.637 792.084 193.888 791.242 192.123L757.697 121.798C738.293 81.2339 689.714 64.0322 649.107 83.3457C647.342 84.1878 645.228 83.4392 644.386 81.6738C643.543 79.9084 644.292 77.7944 646.057 76.9523C690.196 55.9592 742.999 74.6569 764.091 118.748Z" fill="black"/>
</g>
<g clip-path="url(#clip6)">
<path d="M780.757 631.716C779.123 632.792 778.67 634.988 779.746 636.622C804.43 674.208 794.031 724.682 756.501 749.45L698.563 787.593L708.971 737.101C709.332 735.179 708.067 733.328 706.145 732.966C704.269 732.614 702.452 733.81 702.035 735.672L689.907 794.539C689.51 796.454 690.741 798.328 692.656 798.726C692.659 798.726 692.662 798.727 692.665 798.727L751.531 810.855C753.44 811.283 755.334 810.083 755.762 808.174C756.19 806.265 754.99 804.372 753.081 803.943C753.041 803.934 753.001 803.926 752.96 803.919L702.458 793.509L760.396 755.366C801.19 728.444 812.493 673.581 785.662 632.727C784.587 631.094 782.39 630.641 780.757 631.716Z" fill="#2196F3"/>
<path d="M754.184 810.338C753.4 810.856 752.442 811.042 751.521 810.853L692.654 798.725C690.739 798.33 689.506 796.458 689.901 794.542L702.028 735.676C702.456 733.767 704.35 732.567 706.259 732.994C708.121 733.412 709.317 735.229 708.965 737.104L697.553 792.499L752.947 803.911C754.863 804.303 756.098 806.175 755.706 808.091C755.517 809.012 754.97 809.821 754.184 810.338Z" fill="black"/>
<path d="M760.396 755.366L695.318 798.21C693.684 799.286 691.487 798.833 690.412 797.2C689.336 795.566 689.789 793.369 691.423 792.294L756.501 749.45C794.031 724.681 804.43 674.207 779.746 636.622C778.67 634.988 779.123 632.792 780.757 631.716C782.39 630.641 784.587 631.093 785.662 632.727C812.493 673.581 801.19 728.444 760.396 755.366Z" fill="black"/>
</g>
<g clip-path="url(#clip7)">
<path d="M279.284 768.382C278.612 766.545 276.577 765.602 274.741 766.275C232.501 781.696 185.75 760.016 170.233 717.811L146.371 652.679L193.138 674.372C194.926 675.164 197.018 674.356 197.81 672.567C198.583 670.823 197.834 668.78 196.117 667.947L141.592 642.662C139.818 641.837 137.712 642.606 136.887 644.379C136.886 644.382 136.884 644.385 136.883 644.387L111.598 698.913C110.744 700.673 111.479 702.791 113.239 703.645C114.999 704.498 117.117 703.764 117.971 702.004C117.989 701.967 118.006 701.93 118.023 701.892L139.72 655.115L163.582 720.248C180.448 766.123 231.265 789.688 277.178 772.925C279.014 772.253 279.957 770.218 279.284 768.382Z" fill="#2196F3"/>
<path d="M111.494 701.614C111.169 700.732 111.207 699.757 111.602 698.903L136.887 644.378C137.71 642.604 139.815 641.833 141.59 642.655L196.115 667.94C197.875 668.794 198.61 670.913 197.756 672.673C196.923 674.389 194.881 675.138 193.136 674.365L141.827 650.572L118.033 701.881C117.213 703.656 115.108 704.43 113.333 703.61C112.479 703.215 111.817 702.497 111.494 701.614Z" fill="black"/>
<path d="M163.582 720.248L136.779 647.088C136.106 645.251 137.049 643.217 138.886 642.544C140.722 641.871 142.757 642.815 143.43 644.651L170.233 717.811C185.75 760.016 232.501 781.696 274.741 766.275C276.577 765.602 278.612 766.545 279.285 768.382C279.957 770.218 279.014 772.253 277.177 772.926C231.265 789.688 180.447 766.123 163.582 720.248Z" fill="black"/>
</g>
<defs>
<clipPath id="clip0">
<rect width="242" height="242" fill="white" transform="translate(335)"/>
</clipPath>
<clipPath id="clip1">
<rect width="242" height="242" fill="white" transform="translate(668 325)"/>
</clipPath>
<clipPath id="clip2">
<rect width="242" height="242" fill="white" transform="translate(348 659)"/>
</clipPath>
<clipPath id="clip3">
<rect width="242" height="242" fill="white" transform="translate(0 305)"/>
</clipPath>
<clipPath id="clip4">
<rect width="170" height="170" fill="white" transform="translate(291.011 187.417) rotate(157.303)"/>
</clipPath>
<clipPath id="clip5">
<rect width="170" height="170" fill="white" transform="translate(700.09 239.529) rotate(-115.501)"/>
</clipPath>
<clipPath id="clip6">
<rect width="170" height="170" fill="white" transform="translate(632 708.479) rotate(-33.3588)"/>
</clipPath>
<clipPath id="clip7">
<rect width="170" height="170" fill="white" transform="translate(238.624 606) rotate(69.8787)"/>
</clipPath>
</defs>
</svg>
