<svg width="555" height="555" viewBox="0 0 555 555" fill="none" xmlns="http://www.w3.org/2000/svg">
<path d="M523.645 0H31.3553C14.0935 0 0 14.0935 0 31.3553C0 43.81 7.31988 54.5167 17.9173 59.5423V384.895H157.869L104.117 555H158.743L181.358 483.44H379.104L405.543 555H460.388L397.677 384.895H536.973V59.5423C547.68 54.5167 555 43.81 555 31.3553C555 14.0935 540.906 0 523.645 0ZM145.633 537.083H128.59L176.66 384.895H193.704L145.633 537.083ZM187.039 465.523L212.495 385.004H342.942L372.658 465.523H187.039ZM434.714 537.083H417.998L361.952 384.895H378.667L434.714 537.083ZM519.275 366.977H519.165H391.122H336.278H218.067H163.441H35.8346V62.7106H519.275V366.977ZM523.645 44.7933H31.3553C23.9262 44.7933 17.9173 38.7844 17.9173 31.3553C17.9173 23.9262 23.9262 17.9173 31.3553 17.9173H523.645C531.074 17.9173 537.083 23.9262 537.083 31.3553C537.083 38.7844 531.074 44.7933 523.645 44.7933Z" fill="black"/>
<path d="M152.188 188.023V107.504H143.229C93.8474 107.504 53.752 147.709 53.752 196.981C53.752 246.254 93.8474 286.459 143.229 286.459C192.611 286.459 232.707 246.254 232.707 196.981V188.023H152.188ZM143.229 268.541C103.789 268.541 71.6693 236.421 71.6693 196.981C71.56 160.491 98.9823 130.338 134.271 125.858V205.831H214.243C209.873 241.119 179.61 268.541 143.229 268.541Z" fill="black"/>
<path d="M170.105 80.628H161.147V179.064H259.583V170.105C259.583 120.723 219.378 80.628 170.105 80.628ZM179.064 161.037V98.9823C211.403 103.025 237.077 128.699 241.119 161.037H179.064Z" fill="black"/>
<path d="M232.707 241.665V349.06H286.459V241.665H232.707ZM268.541 331.143H250.624V259.583H268.541V331.143Z" fill="black"/>
<path d="M304.267 205.94V349.169H358.019V205.94H304.267ZM340.21 331.252H322.293V223.857H340.21V331.252Z" fill="black"/>
<path d="M375.936 161.147V349.169H429.688V161.147H375.936ZM411.771 331.252H393.853V179.064H411.771V331.252Z" fill="black"/>
<path d="M447.496 116.353V349.06H501.248V116.353H447.496ZM483.44 331.252H465.523V134.271H483.44V331.252Z" fill="black"/>
</svg>
