<svg width="96" height="101" viewBox="0 0 96 101" fill="none" xmlns="http://www.w3.org/2000/svg">
<path d="M23.2252 3.27051C10.2047 3.27051 0 8.99649 0 16.2931V84.7067C0 92.0232 10.2047 97.7293 23.2252 97.7293C36.2457 97.7293 46.4504 92.0034 46.4504 84.7067V16.2931C46.4504 8.99649 36.2457 3.27051 23.2252 3.27051ZM43.3512 84.7266C43.3512 89.4386 35.263 94.5085 23.2252 94.5085C11.1874 94.5085 3.09921 89.4386 3.09921 84.7266V81.5256C7.06772 85.4225 14.5134 87.9872 23.2252 87.9872C31.937 87.9872 39.3827 85.4225 43.3512 81.5256V84.7266ZM43.3512 74.9447C43.3512 79.6567 35.263 84.7266 23.2252 84.7266C11.1874 84.7266 3.09921 79.6567 3.09921 74.9447V71.7437C7.06772 75.6406 14.5134 78.2053 23.2252 78.2053C31.937 78.2053 39.3827 75.6406 43.3512 71.7437V74.9447ZM43.3512 65.1628C43.3512 69.8748 35.263 74.9447 23.2252 74.9447C11.1874 74.9447 3.09921 69.8947 3.09921 65.1628V61.9618C7.06772 65.8587 14.5134 68.4234 23.2252 68.4234C31.937 68.4234 39.3827 65.8587 43.3512 61.9618V65.1628ZM43.3512 55.4008C43.3512 60.1128 35.263 65.1827 23.2252 65.1827C11.1874 65.1827 3.09921 60.1128 3.09921 55.4008V52.1998C7.06772 56.0768 14.5134 58.6614 23.2252 58.6614C31.937 58.6614 39.3827 56.0967 43.3512 52.1998V55.4008ZM43.3512 45.6189C43.3512 50.3309 35.263 55.4008 23.2252 55.4008C11.1874 55.4008 3.09921 50.3508 3.09921 45.6189V42.4179C7.06772 46.3148 14.5134 48.8796 23.2252 48.8796C31.937 48.8796 39.3827 46.3148 43.3512 42.4179V45.6189ZM43.3512 35.8569C43.3512 40.5689 35.263 45.6388 23.2252 45.6388C11.1874 45.6388 3.09921 40.5689 3.09921 35.8569V32.6559C7.06772 36.5528 14.5134 39.1175 23.2252 39.1175C31.937 39.1175 39.3827 36.5528 43.3512 32.6559V35.8569ZM43.3512 26.075C43.3512 30.787 35.263 35.8569 23.2252 35.8569C11.1874 35.8569 3.09921 30.787 3.09921 26.075V22.874C7.06772 26.7709 14.5134 29.3357 23.2252 29.3357C31.937 29.3357 39.3827 26.7709 43.3512 22.874V26.075ZM23.2252 26.075C11.1874 26.075 3.09921 21.025 3.09921 16.2931C3.09921 11.5811 11.1874 6.51126 23.2252 6.51126C35.263 6.51126 43.3512 11.5613 43.3512 16.2931C43.3512 21.025 35.263 26.075 23.2252 26.075Z" fill="black"/>
<path d="M72.7748 42.3584C59.7543 42.3584 49.5496 48.0844 49.5496 55.381V84.7068C49.5496 92.0233 59.7543 97.7295 72.7748 97.7295C85.7953 97.7295 96 92.0234 96 84.7267V55.4009C96 48.0844 85.7953 42.3584 72.7748 42.3584ZM92.9008 84.7267C92.9008 89.4387 84.8126 94.5086 72.7748 94.5086C60.737 94.5086 52.6488 89.4586 52.6488 84.7267V81.5257C56.6173 85.4226 64.063 87.9873 72.7748 87.9873C81.4866 87.9873 88.9323 85.4226 92.9008 81.5257V84.7267ZM92.9008 74.9448C92.9008 79.6568 84.8126 84.7267 72.7748 84.7267C60.737 84.7267 52.6488 79.6767 52.6488 74.9448V71.7438C56.6173 75.6407 64.063 78.2054 72.7748 78.2054C81.4866 78.2054 88.9323 75.6407 92.9008 71.7438V74.9448ZM92.9008 65.1629C92.9008 69.8749 84.8126 74.9448 72.7748 74.9448C60.737 74.9448 52.6488 69.8948 52.6488 65.1629V61.9619C56.6173 65.8588 64.063 68.4236 72.7748 68.4236C81.4866 68.4236 88.9323 65.8588 92.9008 61.9619V65.1629ZM72.7748 65.1629C60.737 65.1629 52.6488 60.1129 52.6488 55.381C52.6488 50.669 60.737 45.5991 72.7748 45.5991C84.8126 45.5991 92.9008 50.6491 92.9008 55.381C92.9008 60.1129 84.8126 65.1629 72.7748 65.1629Z" fill="black"/>
</svg>
