<svg width="101" height="101" viewBox="0 0 101 101" fill="none" xmlns="http://www.w3.org/2000/svg">
<path d="M95.2939 0H5.7061C2.56476 0 0 2.56476 0 5.7061C0 7.97264 1.33209 9.92106 3.26063 10.8356V70.0439H28.7293L18.9474 101H28.8884L33.0039 87.9774H68.9902L73.8016 101H83.7823L72.3701 70.0439H97.7195V10.8356C99.6679 9.92106 101 7.97264 101 5.7061C101 2.56476 98.4352 0 95.2939 0ZM26.5026 97.7394H23.401L32.149 70.0439H35.2506L26.5026 97.7394ZM34.0378 84.7167L38.6703 70.0638H62.4092L67.8171 84.7167H34.0378ZM79.11 97.7394H76.0681L65.8687 70.0439H68.9106L79.11 97.7394ZM94.4986 66.7833H94.4787H71.1772H61.1965H39.6843H29.7433H6.52126V11.4122H94.4986V66.7833ZM95.2939 8.15157H5.7061C4.35413 8.15157 3.26063 7.05807 3.26063 5.7061C3.26063 4.35413 4.35413 3.26063 5.7061 3.26063H95.2939C96.6459 3.26063 97.7394 4.35413 97.7394 5.7061C97.7394 7.05807 96.6459 8.15157 95.2939 8.15157Z" fill="black"/>
<path d="M27.6955 34.2167V19.5637H26.0652C17.0785 19.5637 9.78189 26.8803 9.78189 35.847C9.78189 44.8137 17.0785 52.1302 26.0652 52.1302C35.0518 52.1302 42.3484 44.8137 42.3484 35.847V34.2167H27.6955ZM26.0652 48.8696C18.8878 48.8696 13.0425 43.0243 13.0425 35.847C13.0226 29.2064 18.013 23.719 24.4348 22.9039V37.4574H38.9884C38.1931 43.8793 32.6858 48.8696 26.0652 48.8696Z" fill="black"/>
<path d="M30.9561 14.6729H29.3258V32.5864H47.2394V30.9561C47.2394 21.9695 39.9228 14.6729 30.9561 14.6729ZM32.5864 29.3059V18.013C38.4715 18.7486 43.1437 23.4209 43.8793 29.3059H32.5864Z" fill="black"/>
<path d="M42.3484 43.9788V63.5227H52.1303V43.9788H42.3484ZM48.8697 60.262H45.6091V47.2394H48.8697V60.262Z" fill="black"/>
<path d="M55.3711 37.4773V63.5424H65.153V37.4773H55.3711ZM61.9122 60.2818H58.6516V40.7379H61.9122V60.2818Z" fill="black"/>
<path d="M68.4136 29.3257V63.5424H78.1955V29.3257H68.4136ZM74.9348 60.2818H71.6742V32.5863H74.9348V60.2818Z" fill="black"/>
<path d="M81.4362 21.1743V63.5228H91.2181V21.1743H81.4362ZM87.9774 60.282H84.7167V24.4349H87.9774V60.282Z" fill="black"/>
</svg>
