<svg width="255" height="48" viewBox="0 0 255 48" fill="none" xmlns="http://www.w3.org/2000/svg">
<path d="M29.75 37.625H13.3125L10.1875 47H0.21875L17.1562 1.5H25.8438L42.875 47H32.9062L29.75 37.625ZM15.8438 30.0312H27.2188L21.5 13L15.8438 30.0312ZM63.9688 30.3438H56.5V47H47.125V1.5H64.0312C69.4062 1.5 73.5521 2.69792 76.4688 5.09375C79.3854 7.48958 80.8438 10.875 80.8438 15.25C80.8438 18.3542 80.1667 20.9479 78.8125 23.0312C77.4792 25.0938 75.4479 26.7396 72.7188 27.9688L82.5625 46.5625V47H72.5L63.9688 30.3438ZM56.5 22.75H64.0625C66.4167 22.75 68.2396 22.1562 69.5312 20.9688C70.8229 19.7604 71.4688 18.1042 71.4688 16C71.4688 13.8542 70.8542 12.1667 69.625 10.9375C68.4167 9.70833 66.5521 9.09375 64.0312 9.09375H56.5V22.75ZM100.25 1.5L111.938 34.5L123.562 1.5H135.875V47H126.469V34.5625L127.406 13.0938L115.125 47H108.688L96.4375 13.125L97.375 34.5625V47H88V1.5H100.25ZM177.375 9.09375H163.438V47H154.062V9.09375H140.312V1.5H177.375V9.09375ZM210.125 27.2812H192.125V39.4688H213.25V47H182.75V1.5H213.188V9.09375H192.125V19.9375H210.125V27.2812ZM254.469 31.8438C254.115 36.7396 252.302 40.5938 249.031 43.4062C245.781 46.2188 241.49 47.625 236.156 47.625C230.323 47.625 225.729 45.6667 222.375 41.75C219.042 37.8125 217.375 32.4167 217.375 25.5625V22.7812C217.375 18.4062 218.146 14.5521 219.688 11.2188C221.229 7.88542 223.427 5.33333 226.281 3.5625C229.156 1.77083 232.49 0.875 236.281 0.875C241.531 0.875 245.76 2.28125 248.969 5.09375C252.177 7.90625 254.031 11.8542 254.531 16.9375H245.156C244.927 14 244.104 11.875 242.688 10.5625C241.292 9.22917 239.156 8.5625 236.281 8.5625C233.156 8.5625 230.812 9.6875 229.25 11.9375C227.708 14.1667 226.917 17.6354 226.875 22.3438V25.7812C226.875 30.6979 227.615 34.2917 229.094 36.5625C230.594 38.8333 232.948 39.9688 236.156 39.9688C239.052 39.9688 241.208 39.3125 242.625 38C244.062 36.6667 244.885 34.6146 245.094 31.8438H254.469Z" fill="black"/>
</svg>
